<svg width="24" height="24" viewBox="0 0 24 24" fill="none" xmlns="http://www.w3.org/2000/svg">
<path d="M15.3097 11.5311L10.0083 6.19181C9.88581 6.06897 9.72001 6 9.54718 6C9.37434 6 9.20855 6.06897 9.08609 6.19181L8.69548 6.58521C8.57327 6.7084 8.50462 6.87543 8.50462 7.04958C8.50462 7.22373 8.57327 7.39075 8.69548 7.51395L13.1472 11.9975L8.69045 16.4861C8.56848 16.6094 8.5 16.7764 8.5 16.9504C8.5 17.1245 8.56848 17.2915 8.69045 17.4148L9.08106 17.8082C9.20352 17.931 9.3693 18 9.54214 18C9.71497 18 9.88077 17.931 10.0032 17.8082L15.3097 12.4629C15.4316 12.3389 15.5 12.1714 15.5 11.997C15.5 11.8225 15.4316 11.655 15.3097 11.5311Z" fill="#001444"/>
</svg>
